<svg width="79" height="66" viewBox="0 0 79 66" fill="none" xmlns="http://www.w3.org/2000/svg">
<path d="M68.7024 41.475L61.3343 52.061L56.1348 47.7924C55.5739 47.3302 54.7431 47.4132 54.2822 47.9754C53.8214 48.5376 53.9017 49.3671 54.4653 49.8279L60.7668 55.0011C61.0025 55.1947 61.2988 55.3 61.6016 55.3C61.6608 55.3 61.7214 55.296 61.782 55.2881C62.1454 55.2368 62.4719 55.038 62.6826 54.7365L70.8643 42.9799C71.2791 42.3835 71.1329 41.5619 70.5352 41.1471C69.9374 40.7311 69.1184 40.8772 68.7024 41.475Z" fill="#38CCC0"/>
<path fill-rule="evenodd" clip-rule="evenodd" d="M76.3667 1.31667V39.6356C78.0257 42.2716 79 45.3789 79 48.7167C79 58.1545 71.3212 65.8333 61.8833 65.8333C54.2822 65.8333 47.8319 60.8511 45.6041 53.9833H1.31667C1.1534 53.9833 0.998033 53.9452 0.851883 53.8925C0.818994 53.8797 0.789909 53.8637 0.760668 53.8477L0.760631 53.8477L0.760565 53.8476L0.760387 53.8475C0.747579 53.8405 0.734739 53.8335 0.721533 53.8267C0.625417 53.7766 0.538517 53.7187 0.456883 53.6476C0.417383 53.612 0.380517 53.5778 0.344967 53.5383C0.273867 53.458 0.215933 53.3671 0.164583 53.2697C0.157155 53.2561 0.149467 53.243 0.141845 53.23L0.141822 53.2299C0.125136 53.2015 0.108766 53.1736 0.0961167 53.142C0.0930808 53.1347 0.0889251 53.1283 0.0848114 53.1219L0.0848028 53.1219C0.0799987 53.1144 0.075253 53.107 0.0724167 53.0985C0.0250167 52.9603 0.00395 52.8194 0.00263333 52.6785C0.00263333 52.6765 0.00197754 52.6746 0.00132047 52.6726L0.00131714 52.6726C0.000658651 52.6706 0 52.6686 0 52.6667V1.31667C0 1.31071 0.0016855 1.30517 0.00338786 1.29958L0.003388 1.29958C0.00469482 1.29528 0.00601154 1.29096 0.00658333 1.28638C0.00921667 1.14023 0.0316 0.992767 0.0855833 0.850567C0.0870444 0.845453 0.0897213 0.841555 0.0924898 0.837524C0.0947112 0.83429 0.0969915 0.83097 0.09875 0.826867C0.106997 0.806625 0.118231 0.788944 0.129538 0.771151C0.138088 0.757695 0.146679 0.744175 0.15405 0.729433C0.208033 0.622783 0.271233 0.52535 0.350233 0.43845C0.38314 0.401746 0.417263 0.372342 0.453773 0.340882L0.4582 0.337067C0.539833 0.26465 0.629367 0.2054 0.7268 0.155367C0.738838 0.149348 0.750661 0.143114 0.762484 0.13688C0.792042 0.121295 0.8216 0.10571 0.854517 0.0934833C1.00067 0.0381833 1.1534 0 1.31667 0H75.05C75.2133 0 75.366 0.0381833 75.5122 0.0948C75.5519 0.109556 75.5867 0.128226 75.6226 0.147436L75.6399 0.156683C75.7373 0.2054 75.8268 0.26465 75.9085 0.337067C75.9467 0.369983 75.9822 0.401583 76.0164 0.43845C76.0954 0.524033 76.1586 0.622783 76.2126 0.729433C76.22 0.744174 76.2286 0.757694 76.2371 0.77115L76.2372 0.771182L76.2372 0.771202C76.2485 0.788978 76.2597 0.806644 76.2679 0.826867C76.2693 0.831015 76.2718 0.8348 76.2744 0.838795C76.2767 0.842407 76.2792 0.84619 76.2811 0.850567C76.3351 0.992767 76.3561 1.14023 76.3601 1.28638C76.3607 1.29093 76.362 1.29522 76.3633 1.29949L76.3633 1.29957C76.365 1.30517 76.3667 1.31071 76.3667 1.31667ZM71.7359 34.7429C72.0599 34.972 72.3798 35.2037 72.6879 35.4552C72.757 35.5122 72.8239 35.5717 72.8906 35.6311L72.8907 35.6312L72.8908 35.6314L72.891 35.6315L72.8911 35.6316C72.9399 35.675 72.9887 35.7185 73.0381 35.7607C73.1047 35.8182 73.1717 35.8749 73.2388 35.9317L73.239 35.9319L73.2393 35.9321L73.2394 35.9322L73.2394 35.9323L73.2395 35.9324L73.2396 35.9325C73.4072 36.0742 73.5746 36.2159 73.7333 36.369V4.23573L46.8681 27.9581L53.8135 33.629C56.2204 32.3373 58.9669 31.6 61.8833 31.6C62.4561 31.6 63.0249 31.6303 63.5871 31.6856C63.7184 31.6984 63.8472 31.7195 63.976 31.7406C64.059 31.7541 64.1421 31.7677 64.2257 31.7791C64.2864 31.7875 64.3472 31.7957 64.408 31.804L64.4081 31.804C64.6902 31.8422 64.9728 31.8805 65.2501 31.9358C65.4023 31.9666 65.5517 32.0057 65.7013 32.0448L65.7015 32.0449C65.7822 32.066 65.8628 32.0871 65.9439 32.1069L66.09 32.142L66.0903 32.1421L66.0904 32.1421L66.0906 32.1421L66.0907 32.1422C66.3527 32.2049 66.6146 32.2676 66.8709 32.3452C67.0117 32.3882 67.1493 32.4384 67.2867 32.4886C67.3599 32.5154 67.4331 32.5421 67.5068 32.5678L67.6472 32.6165L67.6473 32.6165L67.6473 32.6166L67.6474 32.6166L67.6475 32.6166C67.9142 32.7091 68.1808 32.8015 68.4417 32.9101C68.5595 32.9596 68.674 33.0141 68.7884 33.0686L68.789 33.0689C68.8508 33.0983 68.9126 33.1277 68.9749 33.1563L69.0021 33.1688L69.0022 33.1688C69.3209 33.3147 69.6381 33.4599 69.9466 33.625C70.0394 33.6751 70.1291 33.7288 70.2189 33.7825C70.2731 33.815 70.3274 33.8474 70.3824 33.8792C70.7155 34.0701 71.0473 34.2649 71.3673 34.4782C71.4463 34.5315 71.5233 34.5879 71.6005 34.6445C71.6454 34.6774 71.6904 34.7104 71.7359 34.7429ZM71.5701 2.63333L43.8542 27.1075C43.8532 27.1086 43.8522 27.1096 43.8512 27.1106C43.8501 27.1117 43.8489 27.1128 43.8478 27.1138C43.8457 27.1156 43.8436 27.1173 43.8414 27.1189C43.8376 27.1218 43.8337 27.1245 43.8297 27.1272L43.8297 27.1272C43.8194 27.1343 43.8088 27.1416 43.8002 27.1523C43.7997 27.1528 43.7994 27.1536 43.799 27.1545L43.7982 27.1562C43.7978 27.1571 43.7972 27.158 43.7963 27.1589L41.2104 29.442C39.5421 30.9311 36.8259 30.9325 35.1511 29.438L32.5467 27.1391C32.543 27.1349 32.5408 27.1301 32.5385 27.1252C32.5359 27.1195 32.5332 27.1138 32.5283 27.1089C32.5102 27.0885 32.4882 27.0746 32.4662 27.0608C32.4499 27.0504 32.4336 27.0402 32.419 27.0272L4.79662 2.63333H71.5701ZM2.63333 49.9504C8.01323 45.6936 22.2266 34.3874 29.542 27.9976L2.63333 4.23573V49.9504ZM44.9813 51.35H5.10735C11.0955 46.6047 24.5953 35.8397 31.5315 29.754L33.4038 31.4065C34.7218 32.5836 36.4545 33.1721 38.186 33.1721C39.9147 33.1721 41.6448 32.5849 42.9589 31.4117L44.8694 29.7251L51.4935 35.1339C51.4718 35.1504 51.4517 35.1685 51.4316 35.1866C51.4116 35.2047 51.3915 35.2228 51.3697 35.2393C50.9866 35.5382 50.6192 35.8555 50.2637 36.186C50.2163 36.2298 50.1678 36.2728 50.1194 36.3159L50.1193 36.3159C50.0441 36.3827 49.969 36.4494 49.8977 36.5191C49.5751 36.8364 49.2723 37.1708 48.9747 37.5132C48.66 37.8726 48.3691 38.2465 48.0886 38.6284C48.0424 38.6911 47.9954 38.7532 47.9484 38.8152L47.9482 38.8154C47.8493 38.946 47.7504 39.0765 47.6594 39.213C47.4709 39.4944 47.3013 39.7859 47.1312 40.0782L47.0853 40.157L47.0385 40.2369C46.9407 40.4036 46.843 40.5702 46.7522 40.7416C46.585 41.0576 46.4336 41.3789 46.2874 41.7054C46.1847 41.9319 46.086 42.161 45.9938 42.3927C45.87 42.7035 45.7542 43.0155 45.6488 43.3341C45.5567 43.6133 45.4763 43.8964 45.3973 44.1821L45.3732 44.2701C45.3022 44.5287 45.2315 44.786 45.1735 45.0498C45.0945 45.4092 45.0379 45.7766 44.9826 46.1452C44.9702 46.2266 44.9566 46.3077 44.943 46.3888C44.9174 46.5412 44.8918 46.6936 44.8746 46.8483C44.8075 47.4606 44.7667 48.0834 44.7667 48.7167C44.7667 49.2078 44.7956 49.7029 44.8417 50.2019C44.8647 50.4659 44.9 50.7255 44.9352 50.9847L44.9444 51.0524C44.9511 51.0985 44.9561 51.144 44.9611 51.1895L44.9611 51.1895C44.9669 51.2428 44.9728 51.296 44.9813 51.35ZM47.8753 52.3335C49.4882 58.5719 55.1486 63.2 61.8833 63.2C69.8689 63.2 76.3667 56.7023 76.3667 48.7167C76.3667 45.7436 75.4634 42.9773 73.919 40.6745C73.6188 40.2255 73.2923 39.8002 72.9499 39.3933C72.8674 39.2943 72.7797 39.2003 72.6918 39.1061C72.6535 39.0651 72.6152 39.0241 72.5773 38.9826C72.3403 38.7219 72.0967 38.4691 71.8439 38.2281C71.6833 38.0767 71.52 37.9266 71.3528 37.7817C71.1026 37.5658 70.8446 37.3617 70.5812 37.1629C70.5307 37.1248 70.4804 37.0862 70.4302 37.0475C70.3157 36.9594 70.2012 36.8714 70.0822 36.789C69.6596 36.498 69.2251 36.2241 68.7735 35.9792C68.7141 35.9469 68.6521 35.9184 68.59 35.8899C68.5434 35.8685 68.4966 35.847 68.4509 35.8239C68.0743 35.6329 67.6925 35.4526 67.3014 35.2946C67.1773 35.2453 67.0518 35.2008 66.9259 35.1561C66.8769 35.1388 66.8278 35.1214 66.7787 35.1036C66.4337 34.9799 66.0861 34.8666 65.732 34.7692C65.5489 34.7192 65.3659 34.6705 65.1803 34.627C64.8063 34.5388 64.4258 34.4703 64.0427 34.4124C63.9772 34.403 63.9119 34.3923 63.8466 34.3816C63.7477 34.3654 63.6488 34.3492 63.5489 34.3373C62.9999 34.2728 62.4442 34.2333 61.8833 34.2333C59.1065 34.2333 56.5179 35.0326 54.3138 36.3953C53.7924 36.7166 53.2921 37.0615 52.8234 37.4368C52.822 37.4368 52.822 37.4381 52.8207 37.4381C52.3612 37.8041 51.9333 38.1991 51.5278 38.6126C51.4614 38.6806 51.3982 38.7517 51.3349 38.823C51.2976 38.8649 51.2603 38.9069 51.2223 38.9483C50.9616 39.2301 50.7141 39.5211 50.4784 39.8213C50.3349 40.003 50.1953 40.1886 50.061 40.3782C49.878 40.6363 49.7094 40.9023 49.5449 41.1708C49.5051 41.2359 49.4646 41.3004 49.4241 41.3649C49.3384 41.5014 49.2527 41.6379 49.1749 41.7792C48.9352 42.2163 48.718 42.6666 48.5244 43.1274C48.4678 43.2625 48.4192 43.4017 48.3707 43.5406C48.3459 43.6116 48.3211 43.6825 48.2953 43.7528C48.1795 44.0702 48.0689 44.3888 47.9754 44.7153C47.9135 44.9299 47.8595 45.1485 47.8069 45.3671C47.7226 45.7239 47.6528 46.086 47.5962 46.4507C47.5885 46.4984 47.5806 46.5461 47.5727 46.5937C47.5493 46.7339 47.526 46.874 47.5093 47.0155C47.4435 47.5764 47.4 48.1426 47.4 48.7167C47.4 49.2934 47.4408 49.8793 47.5172 50.4692C47.5211 50.4996 47.5265 50.53 47.5312 50.5604C47.5328 50.5708 47.5343 50.5812 47.5356 50.5916C47.6146 51.1683 47.7252 51.7503 47.8753 52.3335Z" fill="#419BF9"/>
</svg>
