<svg width="837" height="235" viewBox="0 0 837 235" fill="none" xmlns="http://www.w3.org/2000/svg">
<path d="M7.86604 234.626C5.68103 234.626 3.82377 233.856 2.29426 232.316C0.764752 230.776 0 228.905 0 226.705V8.51261C0 6.09222 0.764752 4.1119 2.29426 2.57166C3.82377 1.03141 5.68103 0.261278 7.86604 0.261278H95.7035C112.747 0.261278 127.605 3.01173 140.278 8.51261C152.951 13.7935 162.783 21.9347 169.775 32.9365C176.767 43.7182 180.263 57.2504 180.263 73.533C180.263 90.0356 176.767 103.678 169.775 114.46C162.783 125.021 152.951 132.942 140.278 138.223C127.605 143.504 112.747 146.145 95.7035 146.145H46.8685V226.705C46.8685 228.905 46.1038 230.776 44.5742 232.316C43.2632 233.856 41.406 234.626 39.0025 234.626H7.86604ZM46.213 109.509H94.0648C106.738 109.509 116.461 106.538 123.235 100.597C130.008 94.4363 133.395 85.4149 133.395 73.533C133.395 62.5312 130.227 53.7298 123.89 47.1288C117.554 40.3077 107.612 36.8971 94.0648 36.8971H46.213V109.509Z" fill="white"/>
<path d="M220.308 234.626C218.123 234.626 216.266 233.856 214.736 232.316C213.207 230.776 212.442 228.905 212.442 226.705V8.21005C212.442 6.0097 213.207 4.1394 214.736 2.59917C216.266 1.05891 218.123 0.288785 220.308 0.288785H247.511C249.697 0.288785 251.554 1.05891 253.083 2.59917C254.613 4.1394 255.378 6.0097 255.378 8.21005V226.705C255.378 228.905 254.613 230.776 253.083 232.316C251.554 233.856 249.697 234.626 247.511 234.626H220.308Z" fill="white"/>
<path d="M306.719 234.626C304.534 234.626 302.677 233.856 301.148 232.316C299.618 230.776 298.853 228.905 298.853 226.705V70.9201C298.853 68.7197 299.618 66.8494 301.148 65.3092C302.677 63.7689 304.534 62.9988 306.719 62.9988H333.923C336.326 62.9988 338.184 63.7689 339.495 65.3092C341.024 66.8494 341.789 68.7197 341.789 70.9201V226.705C341.789 228.905 341.024 230.776 339.495 232.316C338.184 233.856 336.326 234.626 333.923 234.626H306.719ZM305.408 39.6063C303.223 39.6063 301.366 38.8362 299.837 37.2959C298.307 35.7557 297.542 33.8854 297.542 31.685V7.92126C297.542 5.72091 298.307 3.85061 299.837 2.31036C301.366 0.77012 303.223 0 305.408 0H335.234C337.637 0 339.604 0.77012 341.133 2.31036C342.663 3.85061 343.428 5.72091 343.428 7.92126V31.685C343.428 33.8854 342.663 35.7557 341.133 37.2959C339.604 38.8362 337.637 39.6063 335.234 39.6063H305.408Z" fill="white"/>
<path d="M393.138 234.626C390.953 234.626 389.096 233.856 387.566 232.316C386.037 230.776 385.272 228.905 385.272 226.705V70.9201C385.272 68.7197 386.037 66.8494 387.566 65.3092C389.096 63.7689 390.953 62.9988 393.138 62.9988H420.014C422.199 62.9988 424.056 63.7689 425.586 65.3092C427.115 66.8494 427.88 68.7197 427.88 70.9201V84.4522C433.561 77.4111 440.772 71.5802 449.512 66.9594C458.47 62.1187 469.504 59.6983 482.614 59.6983C495.943 59.6983 507.524 62.7788 517.356 68.9397C527.189 74.8807 534.727 83.3521 539.971 94.3538C545.434 105.356 548.165 118.558 548.165 133.96V226.705C548.165 228.905 547.4 230.776 545.871 232.316C544.341 233.856 542.484 234.626 540.299 234.626H511.457C509.272 234.626 507.414 233.856 505.885 232.316C504.355 230.776 503.591 228.905 503.591 226.705V135.94C503.591 123.178 500.422 113.167 494.086 105.906C487.968 98.6445 479.009 95.0139 467.21 95.0139C455.848 95.0139 446.78 98.6445 440.007 105.906C433.233 113.167 429.846 123.178 429.846 135.94V226.705C429.846 228.905 429.082 230.776 427.552 232.316C426.023 233.856 424.165 234.626 421.98 234.626H393.138Z" fill="white"/>
<path d="M597.991 234.626C595.806 234.626 593.949 233.856 592.419 232.316C590.89 230.776 590.125 228.905 590.125 226.705V8.21005C590.125 6.0097 590.89 4.1394 592.419 2.59917C593.949 1.05891 595.806 0.288785 597.991 0.288785H624.539C626.942 0.288785 628.799 1.05891 630.11 2.59917C631.64 4.1394 632.405 6.0097 632.405 8.21005V121.088L687.467 68.6097C689.652 66.8494 691.4 65.5292 692.711 64.6491C694.241 63.5489 696.535 62.9988 699.594 62.9988H730.075C732.26 62.9988 734.008 63.6589 735.319 64.9791C736.63 66.2993 737.285 68.0596 737.285 70.26C737.285 71.1401 737.067 72.1303 736.63 73.2304C736.193 74.3306 735.319 75.3208 734.008 76.2009L666.491 139.901L742.202 221.754C744.387 223.955 745.479 225.825 745.479 227.365C745.479 229.565 744.714 231.326 743.185 232.646C741.874 233.966 740.235 234.626 738.269 234.626H707.132C703.855 234.626 701.451 234.186 699.922 233.306C698.611 232.206 696.972 230.776 695.005 229.015L632.405 162.675V226.705C632.405 228.905 631.64 230.776 630.11 232.316C628.799 233.856 626.942 234.626 624.539 234.626H597.991Z" fill="white"/>
<path d="M779.158 234.626C778.775 234.626 778.462 234.504 778.219 234.26C777.976 234.016 777.854 233.702 777.854 233.319V205.34H768.363C768.015 205.34 767.72 205.218 767.476 204.974C767.233 204.729 767.111 204.416 767.111 204.032V199.325C767.111 198.942 767.233 198.628 767.476 198.384C767.72 198.14 768.015 198.018 768.363 198.018H795.689C796.071 198.018 796.384 198.14 796.627 198.384C796.871 198.628 796.992 198.942 796.992 199.325V204.032C796.992 204.416 796.871 204.729 796.627 204.974C796.384 205.218 796.071 205.34 795.689 205.34H786.25V233.319C786.25 233.702 786.128 234.016 785.885 234.26C785.641 234.504 785.329 234.626 784.946 234.626H779.158Z" fill="white"/>
<path d="M803.312 234.626C802.93 234.626 802.617 234.504 802.373 234.26C802.13 234.016 802.008 233.702 802.008 233.319V199.325C802.008 198.942 802.13 198.628 802.373 198.384C802.617 198.14 802.93 198.018 803.312 198.018H808.214C808.736 198.018 809.118 198.157 809.361 198.436C809.639 198.715 809.813 198.924 809.883 199.064L819.53 216.741L829.178 199.064C829.247 198.924 829.404 198.715 829.647 198.436C829.925 198.157 830.325 198.018 830.846 198.018H835.696C836.079 198.018 836.392 198.14 836.635 198.384C836.878 198.628 837 198.942 837 199.325V233.319C837 233.702 836.878 234.016 836.635 234.26C836.392 234.504 836.079 234.626 835.696 234.626H830.377C830.029 234.626 829.734 234.504 829.491 234.26C829.247 234.016 829.126 233.702 829.126 233.319V212.243L822.503 224.637C822.364 224.951 822.155 225.23 821.877 225.474C821.599 225.718 821.216 225.84 820.73 225.84H818.279C817.827 225.84 817.462 225.718 817.184 225.474C816.905 225.23 816.679 224.951 816.506 224.637L809.935 212.243V233.319C809.935 233.702 809.813 234.016 809.57 234.26C809.327 234.504 809.014 234.626 808.631 234.626H803.312Z" fill="white"/>
</svg>
