<svg width="375" height="815" viewBox="0 0 375 815" fill="none" xmlns="http://www.w3.org/2000/svg">
<rect width="375" height="815" fill="#334BC1"/>
<rect width="375" height="815" fill="url(#paint0_linear_1604_5023)"/>
<ellipse opacity="0.4" cx="148.715" cy="427.857" rx="5.77379" ry="5.74972" transform="rotate(127.579 148.715 427.857)" fill="#7F8CCF" fill-opacity="0.4"/>
<ellipse opacity="0.4" cx="65.9923" cy="364.201" rx="5.77379" ry="5.74972" transform="rotate(127.579 65.9923 364.201)" fill="#7F8CCF" fill-opacity="0.4"/>
<ellipse opacity="0.4" cx="107.353" cy="396.029" rx="5.77379" ry="5.74972" transform="rotate(127.579 107.353 396.029)" fill="#7F8CCF" fill-opacity="0.4"/>
<ellipse opacity="0.4" cx="24.6311" cy="332.374" rx="5.77379" ry="5.74972" transform="rotate(127.579 24.6311 332.374)" fill="#7F8CCF" fill-opacity="0.4"/>
<ellipse opacity="0.4" cx="128.034" cy="411.944" rx="5.77379" ry="5.74972" transform="rotate(127.579 128.034 411.944)" fill="#7F8CCF" fill-opacity="0.4"/>
<ellipse opacity="0.4" cx="45.3119" cy="348.288" rx="5.77379" ry="5.74972" transform="rotate(127.579 45.3119 348.288)" fill="#7F8CCF" fill-opacity="0.4"/>
<ellipse opacity="0.4" cx="86.673" cy="380.116" rx="5.77379" ry="5.74972" transform="rotate(127.579 86.673 380.116)" fill="#7F8CCF" fill-opacity="0.4"/>
<ellipse opacity="0.4" cx="90.2093" cy="503.887" rx="5.77379" ry="5.74972" transform="rotate(127.579 90.2093 503.887)" fill="#7F8CCF" fill-opacity="0.4"/>
<ellipse opacity="0.4" cx="48.8479" cy="472.059" rx="5.77379" ry="5.74972" transform="rotate(127.579 48.8479 472.059)" fill="#7F8CCF" fill-opacity="0.4"/>
<ellipse opacity="0.4" cx="69.5287" cy="487.973" rx="5.77379" ry="5.74972" transform="rotate(127.579 69.5287 487.973)" fill="#7F8CCF" fill-opacity="0.4"/>
<ellipse opacity="0.4" cx="28.1675" cy="456.145" rx="5.77379" ry="5.74972" transform="rotate(127.579 28.1675 456.145)" fill="#7F8CCF" fill-opacity="0.4"/>
<ellipse opacity="0.4" cx="31.704" cy="579.916" rx="5.77379" ry="5.74972" transform="rotate(127.579 31.704 579.916)" fill="#7F8CCF" fill-opacity="0.4"/>
<ellipse opacity="0.4" cx="134.088" cy="446.865" rx="5.77379" ry="5.74972" transform="rotate(127.579 134.088 446.865)" fill="#7F8CCF" fill-opacity="0.4"/>
<ellipse opacity="0.4" cx="51.3658" cy="383.209" rx="5.77379" ry="5.74972" transform="rotate(127.579 51.3658 383.209)" fill="#7F8CCF" fill-opacity="0.4"/>
<ellipse opacity="0.4" cx="92.727" cy="415.037" rx="5.77379" ry="5.74972" transform="rotate(127.579 92.727 415.037)" fill="#7F8CCF" fill-opacity="0.4"/>
<ellipse opacity="0.4" cx="113.408" cy="430.951" rx="5.77379" ry="5.74972" transform="rotate(127.579 113.408 430.951)" fill="#7F8CCF" fill-opacity="0.4"/>
<ellipse opacity="0.4" cx="30.6857" cy="367.295" rx="5.77379" ry="5.74972" transform="rotate(127.579 30.6857 367.295)" fill="#7F8CCF" fill-opacity="0.4"/>
<ellipse opacity="0.4" cx="72.0467" cy="399.123" rx="5.77379" ry="5.74972" transform="rotate(127.579 72.0467 399.123)" fill="#7F8CCF" fill-opacity="0.4"/>
<ellipse opacity="0.4" cx="75.5831" cy="522.894" rx="5.77379" ry="5.74972" transform="rotate(127.579 75.5831 522.894)" fill="#7F8CCF" fill-opacity="0.4"/>
<ellipse opacity="0.4" cx="34.2219" cy="491.066" rx="5.77379" ry="5.74972" transform="rotate(127.579 34.2219 491.066)" fill="#7F8CCF" fill-opacity="0.4"/>
<ellipse opacity="0.4" cx="18.0779" cy="510.082" rx="5.77379" ry="5.74972" transform="rotate(127.579 18.0779 510.082)" fill="#7F8CCF" fill-opacity="0.4"/>
<ellipse opacity="0.4" cx="54.9026" cy="506.98" rx="5.77379" ry="5.74972" transform="rotate(127.579 54.9026 506.98)" fill="#7F8CCF" fill-opacity="0.4"/>
<ellipse opacity="0.4" cx="17.0779" cy="598.923" rx="5.77379" ry="5.74972" transform="rotate(127.579 17.0779 598.923)" fill="#7F8CCF" fill-opacity="0.4"/>
<ellipse opacity="0.4" cx="119.462" cy="465.872" rx="5.77379" ry="5.74972" transform="rotate(127.579 119.462 465.872)" fill="#7F8CCF" fill-opacity="0.4"/>
<ellipse opacity="0.4" cx="36.7395" cy="402.216" rx="5.77379" ry="5.74972" transform="rotate(127.579 36.7395 402.216)" fill="#7F8CCF" fill-opacity="0.4"/>
<ellipse opacity="0.4" cx="19.0779" cy="386.082" rx="5.77379" ry="5.74972" transform="rotate(127.579 19.0779 386.082)" fill="#7F8CCF" fill-opacity="0.4"/>
<ellipse opacity="0.4" cx="78.1007" cy="434.044" rx="5.77379" ry="5.74972" transform="rotate(127.579 78.1007 434.044)" fill="#7F8CCF" fill-opacity="0.4"/>
<ellipse opacity="0.4" cx="98.7814" cy="449.958" rx="5.77379" ry="5.74972" transform="rotate(127.579 98.7814 449.958)" fill="#7F8CCF" fill-opacity="0.4"/>
<ellipse opacity="0.4" cx="57.4202" cy="418.13" rx="5.77379" ry="5.74972" transform="rotate(127.579 57.4202 418.13)" fill="#7F8CCF" fill-opacity="0.4"/>
<ellipse opacity="0.4" cx="60.9566" cy="541.901" rx="5.77379" ry="5.74972" transform="rotate(127.579 60.9566 541.901)" fill="#7F8CCF" fill-opacity="0.4"/>
<ellipse opacity="0.4" cx="40.276" cy="525.987" rx="5.77379" ry="5.74972" transform="rotate(127.579 40.276 525.987)" fill="#7F8CCF" fill-opacity="0.4"/>
<ellipse opacity="0.4" cx="104.836" cy="484.88" rx="5.77379" ry="5.74972" transform="rotate(127.579 104.836 484.88)" fill="#7F8CCF" fill-opacity="0.4"/>
<ellipse opacity="0.4" cx="22.1131" cy="421.223" rx="5.77379" ry="5.74972" transform="rotate(127.579 22.1131 421.223)" fill="#7F8CCF" fill-opacity="0.4"/>
<ellipse opacity="0.4" cx="63.4743" cy="453.051" rx="5.77379" ry="5.74972" transform="rotate(127.579 63.4743 453.051)" fill="#7F8CCF" fill-opacity="0.4"/>
<ellipse opacity="0.4" cx="84.155" cy="468.965" rx="5.77379" ry="5.74972" transform="rotate(127.579 84.155 468.965)" fill="#7F8CCF" fill-opacity="0.4"/>
<ellipse opacity="0.4" cx="42.7939" cy="437.137" rx="5.77379" ry="5.74972" transform="rotate(127.579 42.7939 437.137)" fill="#7F8CCF" fill-opacity="0.4"/>
<ellipse opacity="0.4" cx="46.3304" cy="560.908" rx="5.77379" ry="5.74972" transform="rotate(127.579 46.3304 560.908)" fill="#7F8CCF" fill-opacity="0.4"/>
<ellipse opacity="0.4" cx="25.6498" cy="544.994" rx="5.77379" ry="5.74972" transform="rotate(127.579 25.6498 544.994)" fill="#7F8CCF" fill-opacity="0.4"/>
<defs>
<linearGradient id="paint0_linear_1604_5023" x1="187.638" y1="146.73" x2="187.476" y2="815" gradientUnits="userSpaceOnUse">
<stop stop-color="#393762" stop-opacity="0"/>
<stop offset="1" stop-color="#393762" stop-opacity="0.31"/>
</linearGradient>
</defs>
</svg>
