<svg width="194" height="63" viewBox="0 0 194 63" fill="none" xmlns="http://www.w3.org/2000/svg">
<path d="M2.08407 58C1.5557 58 1.10658 57.8151 0.736724 57.4452C0.366865 57.0754 0.181935 56.6262 0.181935 56.0979V4.50248C0.181935 3.92127 0.366865 3.44574 0.736724 3.07588C1.10658 2.70602 1.5557 2.52109 2.08407 2.52109H23.3246C27.4459 2.52109 31.0388 3.18156 34.1033 4.50248C37.1679 5.77057 39.5455 7.72554 41.2363 10.3674C42.9271 12.9564 43.7725 16.2059 43.7725 20.1158C43.7725 24.0786 42.9271 27.3545 41.2363 29.9435C39.5455 32.4797 37.1679 34.3818 34.1033 35.6499C31.0388 36.918 27.4459 37.5521 23.3246 37.5521H11.5155V56.0979C11.5155 56.6262 11.3306 57.0754 10.9607 57.4452C10.6437 57.8151 10.1946 58 9.61335 58H2.08407ZM11.357 28.7547H22.9283C25.9928 28.7547 28.3441 28.0414 29.982 26.6148C31.62 25.1354 32.439 22.969 32.439 20.1158C32.439 17.474 31.6728 15.3605 30.1405 13.7754C28.6083 12.1374 26.2042 11.3185 22.9283 11.3185H11.357V28.7547ZM53.4559 58C52.9276 58 52.4784 57.8151 52.1086 57.4452C51.7387 57.0754 51.5538 56.6262 51.5538 56.0979V3.63067C51.5538 3.1023 51.7387 2.65319 52.1086 2.28333C52.4784 1.91347 52.9276 1.72854 53.4559 1.72854H60.0341C60.5625 1.72854 61.0116 1.91347 61.3815 2.28333C61.7513 2.65319 61.9363 3.1023 61.9363 3.63067V56.0979C61.9363 56.6262 61.7513 57.0754 61.3815 57.4452C61.0116 57.8151 60.5625 58 60.0341 58H53.4559ZM76.0543 58C75.5259 58 75.0768 57.8151 74.7069 57.4452C74.3371 57.0754 74.1522 56.6262 74.1522 56.0979V18.6892C74.1522 18.1609 74.3371 17.7117 74.7069 17.3419C75.0768 16.972 75.5259 16.7871 76.0543 16.7871H82.6325C83.2137 16.7871 83.6628 16.972 83.9798 17.3419C84.3497 17.7117 84.5346 18.1609 84.5346 18.6892V56.0979C84.5346 56.6262 84.3497 57.0754 83.9798 57.4452C83.6628 57.8151 83.2137 58 82.6325 58H76.0543ZM75.7373 9.97112C75.1561 9.97112 74.6805 9.81261 74.3107 9.49558C73.9936 9.12573 73.8351 8.65019 73.8351 8.06898V2.36258C73.8351 1.83421 73.9936 1.3851 74.3107 1.01524C74.6805 0.645379 75.1561 0.46045 75.7373 0.46045H82.9495C83.5307 0.46045 84.0063 0.645379 84.3761 1.01524C84.746 1.3851 84.9309 1.83421 84.9309 2.36258V8.06898C84.9309 8.65019 84.746 9.12573 84.3761 9.49558C84.0063 9.81261 83.5307 9.97112 82.9495 9.97112H75.7373ZM98.5771 58C98.0487 58 97.5996 57.8151 97.2298 57.4452C96.8599 57.0754 96.675 56.6262 96.675 56.0979V18.6892C96.675 18.1609 96.8599 17.7117 97.2298 17.3419C97.5996 16.972 98.0487 16.7871 98.5771 16.7871H105.076C105.604 16.7871 106.054 16.972 106.423 17.3419C106.793 17.7117 106.978 18.1609 106.978 18.6892V21.9387C108.352 20.2479 110.096 18.8477 112.209 17.7382C114.375 16.5757 117.044 15.9945 120.214 15.9945C123.437 15.9945 126.237 16.7343 128.615 18.2137C130.993 19.6403 132.816 21.6745 134.084 24.3164C135.405 26.9582 136.065 30.1285 136.065 33.827V56.0979C136.065 56.6262 135.88 57.0754 135.51 57.4452C135.14 57.8151 134.691 58 134.163 58H127.188C126.66 58 126.211 57.8151 125.841 57.4452C125.471 57.0754 125.286 56.6262 125.286 56.0979V34.3026C125.286 31.238 124.52 28.8339 122.988 27.0903C121.508 25.3467 119.342 24.4749 116.489 24.4749C113.741 24.4749 111.549 25.3467 109.911 27.0903C108.273 28.8339 107.454 31.238 107.454 34.3026V56.0979C107.454 56.6262 107.269 57.0754 106.899 57.4452C106.529 57.8151 106.08 58 105.552 58H98.5771ZM148.114 58C147.585 58 147.136 57.8151 146.766 57.4452C146.397 57.0754 146.212 56.6262 146.212 56.0979V3.63067C146.212 3.1023 146.397 2.65319 146.766 2.28333C147.136 1.91347 147.585 1.72854 148.114 1.72854H154.533C155.115 1.72854 155.564 1.91347 155.881 2.28333C156.251 2.65319 156.436 3.1023 156.436 3.63067V30.7361L169.75 18.1344C170.226 17.7117 170.649 17.3947 171.019 17.1834C171.388 16.9192 171.943 16.7871 172.683 16.7871H180.054C180.582 16.7871 181.005 16.9456 181.322 17.2626C181.639 17.5797 181.797 18.0024 181.797 18.5307C181.797 18.7421 181.745 18.9798 181.639 19.244C181.533 19.5082 181.322 19.746 181.005 19.9573L164.678 35.2536L182.986 54.909C183.515 55.4374 183.779 55.8865 183.779 56.2564C183.779 56.7847 183.594 57.2074 183.224 57.5245C182.907 57.8415 182.511 58 182.035 58H174.506C173.713 58 173.132 57.8943 172.762 57.683C172.445 57.4188 172.049 57.0754 171.573 56.6527L156.436 40.7223V56.0979C156.436 56.6262 156.251 57.0754 155.881 57.4452C155.564 57.8151 155.115 58 154.533 58H148.114ZM189.249 62.1156C188.671 62.1156 188.132 62.0077 187.631 61.792C187.131 61.5763 186.688 61.2797 186.302 60.9022C185.925 60.517 185.628 60.074 185.413 59.5732C185.197 59.0725 185.089 58.5332 185.089 57.9554C185.089 57.3776 185.197 56.8383 185.413 56.3376C185.628 55.8368 185.925 55.3977 186.302 55.0202C186.688 54.635 187.131 54.3345 187.631 54.1188C188.132 53.9031 188.671 53.7952 189.249 53.7952C189.827 53.7952 190.366 53.9031 190.867 54.1188C191.368 54.3345 191.807 54.635 192.184 55.0202C192.57 55.3977 192.87 55.8368 193.086 56.3376C193.301 56.8383 193.409 57.3776 193.409 57.9554C193.409 58.5332 193.301 59.0725 193.086 59.5732C192.87 60.074 192.57 60.517 192.184 60.9022C191.807 61.2797 191.368 61.5763 190.867 61.792C190.366 62.0077 189.827 62.1156 189.249 62.1156ZM189.249 61.3991C189.719 61.3991 190.158 61.3105 190.567 61.1333C190.975 60.9484 191.333 60.698 191.641 60.3822C191.949 60.0663 192.192 59.7004 192.369 59.2843C192.546 58.8683 192.635 58.4253 192.635 57.9554C192.635 57.4855 192.546 57.0425 192.369 56.6265C192.192 56.2104 191.949 55.8445 191.641 55.5286C191.333 55.2128 190.975 54.9662 190.567 54.7891C190.158 54.6042 189.719 54.5117 189.249 54.5117C188.779 54.5117 188.34 54.6042 187.932 54.7891C187.523 54.9662 187.165 55.2128 186.857 55.5286C186.549 55.8445 186.306 56.2104 186.129 56.6265C185.96 57.0425 185.875 57.4855 185.875 57.9554C185.875 58.4253 185.96 58.8683 186.129 59.2843C186.306 59.7004 186.549 60.0663 186.857 60.3822C187.165 60.698 187.523 60.9484 187.932 61.1333C188.34 61.3105 188.779 61.3991 189.249 61.3991ZM187.909 60.0586C187.739 60.0586 187.654 59.9738 187.654 59.8044V56.0833C187.654 55.9138 187.739 55.8291 187.909 55.8291H189.423C189.715 55.8291 189.985 55.8715 190.231 55.9562C190.478 56.041 190.674 56.1835 190.821 56.3838C190.975 56.5841 191.052 56.8537 191.052 57.1927C191.052 57.5009 190.975 57.7551 190.821 57.9554C190.674 58.1557 190.486 58.3021 190.255 58.3945L190.994 59.6426C191.01 59.658 191.021 59.6811 191.029 59.7119C191.036 59.735 191.04 59.7658 191.04 59.8044C191.04 59.866 191.017 59.9238 190.971 59.9777C190.932 60.0316 190.871 60.0586 190.786 60.0586H190.474C190.397 60.0586 190.332 60.0393 190.278 60.0008C190.224 59.9623 190.177 59.9084 190.139 59.839L189.388 58.5563H188.51V59.8044C188.51 59.9738 188.425 60.0586 188.255 60.0586H187.909ZM188.51 57.7936H189.399C189.708 57.7936 189.916 57.732 190.023 57.6087C190.131 57.4855 190.185 57.3468 190.185 57.1927C190.185 57.0309 190.131 56.8884 190.023 56.7651C189.916 56.6419 189.708 56.5802 189.399 56.5802H188.51V57.7936Z" fill="#334BC1"/>
</svg>
