<svg width="33" height="26" viewBox="0 0 33 26" fill="none" xmlns="http://www.w3.org/2000/svg">
<path fill-rule="evenodd" clip-rule="evenodd" d="M25.1771 21.9467C29.1376 20.8734 32.0002 17.7722 32.0002 14.1138C32.0002 9.56582 27.5759 5.87891 22.1183 5.87891C16.6606 5.87891 12.2363 9.56582 12.2363 14.1138C12.2363 18.4758 16.3061 22.0457 21.4539 22.3305L24.4774 25.354C24.7356 25.6122 25.1771 25.4293 25.1771 25.0642V21.9467Z" fill="#334BC1"/>
<path d="M25.1771 21.9467L25.0463 21.4641L24.6771 21.5641V21.9467H25.1771ZM21.4539 22.3305L21.8075 21.9769L21.6724 21.8418L21.4815 21.8312L21.4539 22.3305ZM31.5002 14.1138C31.5002 17.489 28.8498 20.4333 25.0463 21.4641L25.3079 22.4293C29.4254 21.3134 32.5002 18.0554 32.5002 14.1138H31.5002ZM22.1183 6.37891C27.389 6.37891 31.5002 9.92344 31.5002 14.1138H32.5002C32.5002 9.20819 27.7628 5.37891 22.1183 5.37891V6.37891ZM12.7363 14.1138C12.7363 9.92344 16.8475 6.37891 22.1183 6.37891V5.37891C16.4737 5.37891 11.7363 9.20819 11.7363 14.1138H12.7363ZM21.4815 21.8312C16.515 21.5565 12.7363 18.134 12.7363 14.1138H11.7363C11.7363 18.8177 16.0971 22.5349 21.4263 22.8297L21.4815 21.8312ZM24.831 25.0004L21.8075 21.9769L21.1004 22.684L24.1239 25.7075L24.831 25.0004ZM24.6771 25.0642C24.6771 25.0511 24.6821 25.0306 24.6954 25.0118C24.7071 24.9952 24.7208 24.9858 24.7328 24.9809C24.7447 24.976 24.7611 24.9728 24.781 24.9763C24.8038 24.9802 24.8218 24.9912 24.831 25.0004L24.1239 25.7075C24.6971 26.2807 25.6771 25.8748 25.6771 25.0642H24.6771ZM24.6771 21.9467V25.0642H25.6771V21.9467H24.6771Z" fill="white"/>
<path d="M7.82307 17.0678H8.10485V16.8522L7.89678 16.7958L7.82307 17.0678ZM11.5463 17.4516L11.5307 17.1702L11.4232 17.1762L11.347 17.2523L11.5463 17.4516ZM12.9926 17.2816L13.0429 17.5589L13.4129 17.4918L13.2446 17.1555L12.9926 17.2816ZM20.0068 6.06825L20.0571 6.34552L20.427 6.27844L20.2588 5.94218L20.0068 6.06825ZM7.89678 16.7958C4.02483 15.7465 1.28178 12.7337 1.28178 9.23494H0.718218C0.718218 13.0529 3.70044 16.2425 7.74936 17.3397L7.89678 16.7958ZM8.10485 20.1853V17.0678H7.54129V20.1853H8.10485ZM8.3235 20.2758C8.24282 20.3565 8.10485 20.2994 8.10485 20.1853H7.54129C7.54129 20.8014 8.28629 21.11 8.722 20.6743L8.3235 20.2758ZM11.347 17.2523L8.3235 20.2758L8.722 20.6743L11.7455 17.6508L11.347 17.2523ZM12.9423 17.0044C12.4833 17.0876 12.0119 17.1436 11.5307 17.1702L11.5618 17.7329C12.0663 17.705 12.5609 17.6463 13.0429 17.5589L12.9423 17.0044ZM11.9538 14.1149C11.9538 15.283 12.2343 16.3957 12.7406 17.4077L13.2446 17.1555C12.7755 16.2178 12.5173 15.1911 12.5173 14.1149H11.9538ZM19.9565 5.79099C15.4187 6.61376 11.9538 9.99764 11.9538 14.1149H12.5173C12.5173 10.3435 15.7079 7.13407 20.0571 6.34552L19.9565 5.79099ZM10.8819 1.28178C14.9038 1.28178 18.3208 3.32821 19.7548 6.19433L20.2588 5.94218C18.7147 2.85583 15.0823 0.718218 10.8819 0.718218V1.28178ZM1.28178 9.23494C1.28178 4.88846 5.52963 1.28178 10.8819 1.28178V0.718218C5.31895 0.718218 0.718218 4.48536 0.718218 9.23494H1.28178Z" fill="white"/>
<circle cx="18.765" cy="14.1068" r="1.10288" stroke="white" stroke-width="0.5"/>
<circle cx="22.1175" cy="14.1068" r="1.10288" stroke="white" stroke-width="0.5"/>
<circle cx="25.471" cy="14.1068" r="1.10288" stroke="white" stroke-width="0.5"/>
</svg>
