<svg width="24" height="24" viewBox="0 0 24 24" fill="none" xmlns="http://www.w3.org/2000/svg">
<path fill-rule="evenodd" clip-rule="evenodd" d="M12 24C18.6274 24 24 18.6274 24 12C24 5.37258 18.6274 0 12 0C5.37258 0 0 5.37258 0 12C0 14.4358 0.725725 16.7021 1.97275 18.5944C1.73691 20.1389 0.400781 22.4 0.400781 22.4C1.81057 22.4 4.01537 22.4 5.33398 21.9797C7.24065 23.2558 9.53342 24 12 24Z" fill="white"/>
<path d="M10.85 14.9394V14.8099C10.8591 13.9644 10.9432 13.2917 11.1023 12.7917C11.2659 12.2917 11.4977 11.8871 11.7977 11.5781C12.0977 11.269 12.4591 10.9871 12.8818 10.7326C13.1545 10.5599 13.4 10.3667 13.6182 10.1531C13.8364 9.93942 14.0091 9.69396 14.1364 9.41669C14.2636 9.13942 14.3273 8.8326 14.3273 8.49624C14.3273 8.09169 14.2318 7.74169 14.0409 7.44624C13.85 7.15078 13.5955 6.92351 13.2773 6.76442C12.9636 6.60078 12.6136 6.51896 12.2273 6.51896C11.8773 6.51896 11.5432 6.59169 11.225 6.73715C10.9068 6.8826 10.6432 7.10987 10.4341 7.41896C10.225 7.72351 10.1045 8.11669 10.0727 8.59851H8C8.03182 7.78033 8.23864 7.08942 8.62045 6.52578C9.00227 5.9576 9.50682 5.52805 10.1341 5.23714C10.7659 4.94624 11.4636 4.80078 12.2273 4.80078C13.0636 4.80078 13.7955 4.9576 14.4227 5.27124C15.05 5.58033 15.5364 6.01442 15.8818 6.57351C16.2318 7.12805 16.4068 7.77578 16.4068 8.51669C16.4068 9.02578 16.3273 9.48487 16.1682 9.89396C16.0091 10.2985 15.7818 10.6599 15.4864 10.9781C15.1955 11.2962 14.8455 11.5781 14.4364 11.8235C14.05 12.0644 13.7364 12.3144 13.4955 12.5735C13.2591 12.8326 13.0864 13.1394 12.9773 13.494C12.8682 13.8485 12.8091 14.2871 12.8 14.8099V14.9394H10.85ZM11.8795 19.0849C11.5068 19.0849 11.1864 18.9531 10.9182 18.6894C10.65 18.4212 10.5159 18.0985 10.5159 17.7212C10.5159 17.3485 10.65 17.0303 10.9182 16.7667C11.1864 16.4985 11.5068 16.3644 11.8795 16.3644C12.2477 16.3644 12.5659 16.4985 12.8341 16.7667C13.1068 17.0303 13.2432 17.3485 13.2432 17.7212C13.2432 17.9712 13.1795 18.2008 13.0523 18.4099C12.9295 18.6144 12.7659 18.7781 12.5614 18.9008C12.3568 19.0235 12.1295 19.0849 11.8795 19.0849Z" fill="#3D6DE8"/>
</svg>
