<svg width="26" height="26" viewBox="0 0 26 26" fill="none" xmlns="http://www.w3.org/2000/svg">
<path d="M2.97275 19.5944L3.46702 19.6699L3.49604 19.4798L3.39025 19.3193L2.97275 19.5944ZM1.40078 23.4L0.970318 23.1456L0.524558 23.9H1.40078V23.4ZM6.33398 22.9797L6.61209 22.5642L6.41178 22.4301L6.18214 22.5033L6.33398 22.9797ZM24.5 13C24.5 19.3513 19.3513 24.5 13 24.5V25.5C19.9036 25.5 25.5 19.9036 25.5 13H24.5ZM13 1.5C19.3513 1.5 24.5 6.64873 24.5 13H25.5C25.5 6.09644 19.9036 0.5 13 0.5V1.5ZM1.5 13C1.5 6.64873 6.64873 1.5 13 1.5V0.5C6.09644 0.5 0.5 6.09644 0.5 13H1.5ZM3.39025 19.3193C2.19539 17.5061 1.5 15.335 1.5 13H0.5C0.5 15.5366 1.25606 17.898 2.55525 19.8695L3.39025 19.3193ZM1.40078 23.4C1.83124 23.6544 1.83128 23.6543 1.83132 23.6542C1.83133 23.6542 1.83138 23.6541 1.83142 23.6541C1.83149 23.6539 1.83159 23.6538 1.83171 23.6536C1.83195 23.6532 1.83226 23.6526 1.83266 23.652C1.83345 23.6506 1.83456 23.6487 1.83598 23.6463C1.83883 23.6415 1.8429 23.6345 1.84814 23.6255C1.85862 23.6074 1.87376 23.5812 1.89294 23.5476C1.93131 23.4803 1.98595 23.3833 2.05206 23.2622C2.18413 23.0204 2.36276 22.6814 2.5492 22.2925C2.91531 21.5287 3.33713 20.5205 3.46702 19.6699L2.47848 19.5189C2.37252 20.2128 2.00836 21.1073 1.64745 21.8602C1.47038 22.2296 1.30024 22.5525 1.17441 22.7829C1.11157 22.898 1.05999 22.9896 1.02436 23.0521C1.00656 23.0833 0.992753 23.1072 0.983545 23.123C0.978941 23.1309 0.975488 23.1368 0.973258 23.1406C0.972144 23.1425 0.971335 23.1439 0.970842 23.1447C0.970595 23.1452 0.970427 23.1454 0.97034 23.1456C0.970296 23.1457 0.970272 23.1457 0.970268 23.1457C0.970266 23.1457 0.970279 23.1457 0.970278 23.1457C0.970295 23.1457 0.970318 23.1456 1.40078 23.4ZM6.18214 22.5033C5.5849 22.6937 4.75564 22.7963 3.87218 22.8483C2.99681 22.8999 2.10741 22.9 1.40078 22.9V23.9C2.10394 23.9 3.02183 23.9001 3.93096 23.8466C4.832 23.7935 5.76446 23.686 6.48583 23.4561L6.18214 22.5033ZM13 24.5C10.6355 24.5 8.43903 23.7869 6.61209 22.5642L6.05588 23.3952C8.04227 24.7247 10.4314 25.5 13 25.5V24.5Z" fill="white"/>
<path d="M11.85 15.9394V15.8099C11.8591 14.9644 11.9432 14.2917 12.1023 13.7917C12.2659 13.2917 12.4977 12.8871 12.7977 12.5781C13.0977 12.269 13.4591 11.9871 13.8818 11.7326C14.1545 11.5599 14.4 11.3667 14.6182 11.1531C14.8364 10.9394 15.0091 10.694 15.1364 10.4167C15.2636 10.1394 15.3273 9.8326 15.3273 9.49624C15.3273 9.09169 15.2318 8.74169 15.0409 8.44624C14.85 8.15078 14.5955 7.92351 14.2773 7.76442C13.9636 7.60078 13.6136 7.51896 13.2273 7.51896C12.8773 7.51896 12.5432 7.59169 12.225 7.73715C11.9068 7.8826 11.6432 8.10987 11.4341 8.41896C11.225 8.72351 11.1045 9.11669 11.0727 9.59851H9C9.03182 8.78033 9.23864 8.08942 9.62045 7.52578C10.0023 6.9576 10.5068 6.52805 11.1341 6.23714C11.7659 5.94624 12.4636 5.80078 13.2273 5.80078C14.0636 5.80078 14.7955 5.9576 15.4227 6.27124C16.05 6.58033 16.5364 7.01442 16.8818 7.57351C17.2318 8.12805 17.4068 8.77578 17.4068 9.51669C17.4068 10.0258 17.3273 10.4849 17.1682 10.894C17.0091 11.2985 16.7818 11.6599 16.4864 11.9781C16.1955 12.2962 15.8455 12.5781 15.4364 12.8235C15.05 13.0644 14.7364 13.3144 14.4955 13.5735C14.2591 13.8326 14.0864 14.1394 13.9773 14.494C13.8682 14.8485 13.8091 15.2871 13.8 15.8099V15.9394H11.85ZM12.8795 20.0849C12.5068 20.0849 12.1864 19.9531 11.9182 19.6894C11.65 19.4212 11.5159 19.0985 11.5159 18.7212C11.5159 18.3485 11.65 18.0303 11.9182 17.7667C12.1864 17.4985 12.5068 17.3644 12.8795 17.3644C13.2477 17.3644 13.5659 17.4985 13.8341 17.7667C14.1068 18.0303 14.2432 18.3485 14.2432 18.7212C14.2432 18.9712 14.1795 19.2008 14.0523 19.4099C13.9295 19.6144 13.7659 19.7781 13.5614 19.9008C13.3568 20.0235 13.1295 20.0849 12.8795 20.0849Z" fill="white"/>
</svg>
