<svg width="88" height="88" viewBox="0 0 88 88" fill="none" xmlns="http://www.w3.org/2000/svg">
<g clip-path="url(#clip0_1046_444)">
<path d="M44 0C19.7165 0 0.0305176 19.686 0.0305176 43.9695C0.0305176 68.2544 19.7165 87.9389 44 87.9389C68.2849 87.9389 87.9695 68.2544 87.9695 43.9695C87.9695 19.686 68.2849 0 44 0ZM44 82.5293C22.7861 82.5293 5.5267 65.1834 5.5267 43.9693C5.5267 22.7554 22.7861 5.49601 44 5.49601C65.2139 5.49601 82.4733 22.7555 82.4733 43.9693C82.4733 65.1831 65.2139 82.5293 44 82.5293ZM61.5479 27.8808L35.7501 53.8406L24.1326 42.2231C23.0594 41.1499 21.3199 41.1499 20.2454 42.2231C19.1723 43.2962 19.1723 45.0357 20.2454 46.1089L33.8471 59.7119C34.9202 60.7837 36.6597 60.7837 37.7342 59.7119C37.8579 59.5882 37.9638 59.4535 38.06 59.3134L65.4365 31.7679C66.5082 30.6947 66.5082 28.9552 65.4365 27.8808C64.362 26.8076 62.6224 26.8076 61.5479 27.8808Z" fill="#2DB72B"/>
</g>
<defs>
<clipPath id="clip0_1046_444">
<rect width="87.9389" height="87.9389" fill="white" transform="translate(0.0305176)"/>
</clipPath>
</defs>
</svg>
