<svg width="28" height="22" viewBox="0 0 28 22" fill="none" xmlns="http://www.w3.org/2000/svg">
<mask id="path-1-inside-1_476_246" fill="white">
<path fill-rule="evenodd" clip-rule="evenodd" d="M28 10.7772L14 0L0 10.7772H5.019V21.5544H22.981V10.7772H28Z"/>
</mask>
<path d="M14 0L14.61 -0.792406L14 -1.26198L13.39 -0.792406L14 0ZM28 10.7772V11.7772H30.9384L28.61 9.9848L28 10.7772ZM0 10.7772L-0.609994 9.9848L-2.9384 11.7772H0V10.7772ZM5.019 10.7772H6.019V9.7772H5.019V10.7772ZM5.019 21.5544H4.019V22.5544H5.019V21.5544ZM22.981 21.5544V22.5544H23.981V21.5544H22.981ZM22.981 10.7772V9.7772H21.981V10.7772H22.981ZM13.39 0.792406L27.39 11.5696L28.61 9.9848L14.61 -0.792406L13.39 0.792406ZM0.609994 11.5696L14.61 0.792406L13.39 -0.792406L-0.609994 9.9848L0.609994 11.5696ZM5.019 9.7772H0V11.7772H5.019V9.7772ZM6.019 21.5544V10.7772H4.019V21.5544H6.019ZM22.981 20.5544H5.019V22.5544H22.981V20.5544ZM21.981 10.7772V21.5544H23.981V10.7772H21.981ZM28 9.7772H22.981V11.7772H28V9.7772Z" fill="white" mask="url(#path-1-inside-1_476_246)"/>
<rect x="12.7041" y="16.0664" width="2.5924" height="4.98734" stroke="white"/>
</svg>
