<svg width="28" height="22" viewBox="0 0 28 22" fill="none" xmlns="http://www.w3.org/2000/svg">
<mask id="path-1-inside-1_6_33" fill="white">
<path fill-rule="evenodd" clip-rule="evenodd" d="M14 0L28 10.7772H22.981V21.5544L15.7963 21.5544V15.5671H12.2039V21.5544L5.019 21.5544V10.7772H0L14 0Z"/>
</mask>
<path fill-rule="evenodd" clip-rule="evenodd" d="M14 0L28 10.7772H22.981V21.5544L15.7963 21.5544V15.5671H12.2039V21.5544L5.019 21.5544V10.7772H0L14 0Z" fill="white"/>
<path d="M28 10.7772V11.7772H30.9384L28.61 9.9848L28 10.7772ZM14 0L14.61 -0.792406L14 -1.26198L13.39 -0.792406L14 0ZM22.981 10.7772V9.7772H21.981V10.7772H22.981ZM22.981 21.5544L22.981 22.5544L23.981 22.5544V21.5544H22.981ZM15.7963 21.5544H14.7963V22.5544L15.7963 22.5544L15.7963 21.5544ZM15.7963 15.5671H16.7963V14.5671H15.7963V15.5671ZM12.2039 15.5671V14.5671H11.2039V15.5671H12.2039ZM12.2039 21.5544L12.2039 22.5544L13.2039 22.5544V21.5544H12.2039ZM5.019 21.5544H4.019V22.5544L5.01899 22.5544L5.019 21.5544ZM5.019 10.7772H6.019V9.7772H5.019V10.7772ZM0 10.7772L-0.609994 9.9848L-2.9384 11.7772H0V10.7772ZM28.61 9.9848L14.61 -0.792406L13.39 0.792406L27.39 11.5696L28.61 9.9848ZM22.981 11.7772H28V9.7772H22.981V11.7772ZM23.981 21.5544V10.7772H21.981V21.5544H23.981ZM15.7963 22.5544L22.981 22.5544L22.981 20.5544L15.7963 20.5544L15.7963 22.5544ZM14.7963 15.5671V21.5544H16.7963V15.5671H14.7963ZM12.2039 16.5671H15.7963V14.5671H12.2039V16.5671ZM13.2039 21.5544V15.5671H11.2039V21.5544H13.2039ZM5.01899 22.5544L12.2039 22.5544L12.2039 20.5544L5.019 20.5544L5.01899 22.5544ZM4.019 10.7772V21.5544H6.019V10.7772H4.019ZM0 11.7772H5.019V9.7772H0V11.7772ZM13.39 -0.792406L-0.609994 9.9848L0.609994 11.5696L14.61 0.792406L13.39 -0.792406Z" fill="white" mask="url(#path-1-inside-1_6_33)"/>
</svg>
