<svg width="16" height="22" viewBox="0 0 16 22" fill="none" xmlns="http://www.w3.org/2000/svg">
<path d="M0.698182 22C0.504243 22 0.339394 21.9277 0.203636 21.7831C0.0678786 21.6385 0 21.463 0 21.2564V0.774558C0 0.547354 0.0678786 0.36146 0.203636 0.216877C0.339394 0.0722924 0.504243 0 0.698182 0H8.49455C10.0073 0 11.3261 0.258186 12.4509 0.774558C13.5758 1.27027 14.4485 2.0345 15.0691 3.06725C15.6897 4.07933 16 5.34961 16 6.87807C16 8.42718 15.6897 9.70778 15.0691 10.7199C14.4485 11.7113 13.5758 12.4549 12.4509 12.9506C11.3261 13.4463 10.0073 13.6942 8.49455 13.6942H4.16V21.2564C4.16 21.463 4.09212 21.6385 3.95636 21.7831C3.84 21.9277 3.67515 22 3.46182 22H0.698182ZM4.10182 10.2551H8.34909C9.47394 10.2551 10.337 9.97629 10.9382 9.41861C11.5394 8.84028 11.84 7.99343 11.84 6.87807C11.84 5.84532 11.5588 5.01913 10.9964 4.39948C10.4339 3.75918 9.55152 3.43903 8.34909 3.43903H4.10182V10.2551Z" fill="white"/>
</svg>
