<svg width="20" height="26" viewBox="0 0 20 26" fill="none" xmlns="http://www.w3.org/2000/svg">
<path d="M1.73707 24.2212L2.20267 23.784L1.73707 24.2212C1.9907 24.4913 2.32303 24.64 2.69818 24.64H5.46182C5.82864 24.64 6.18317 24.5091 6.43898 24.2038C6.6804 23.9383 6.8 23.6105 6.8 23.2564V16.3342H10.4945C12.0762 16.3342 13.4864 16.0751 14.709 15.5362C15.9448 14.9916 16.9194 14.1652 17.6116 13.0594L17.6116 13.0595L17.6147 13.0544C18.3132 11.9153 18.64 10.51 18.64 8.87807C18.64 7.26606 18.3129 5.87255 17.6162 4.73513C16.927 3.58931 15.9536 2.73842 14.7135 2.19088C13.4894 1.62988 12.0775 1.36 10.4945 1.36H2.69818C2.32303 1.36 1.9907 1.50867 1.73707 1.77879C1.4736 2.05939 1.36 2.41007 1.36 2.77456V23.2564C1.36 23.6183 1.4849 23.9526 1.73707 24.2212ZM12.5155 6.82185L12.5155 6.8219L12.5225 6.82962C12.9544 7.30555 13.2 7.96544 13.2 8.87807C13.2 9.87709 12.934 10.5321 12.4987 10.9533C12.0537 11.3636 11.3699 11.6151 10.3491 11.6151H6.74182V6.07903H10.3491C11.4456 6.07903 12.1181 6.3694 12.5155 6.82185Z" stroke="white" stroke-width="1.28"/>
</svg>
