<svg width="29" height="29" viewBox="0 0 29 29" fill="none" xmlns="http://www.w3.org/2000/svg">
<path fill-rule="evenodd" clip-rule="evenodd" d="M8.15364 22.5903C12.88 21.8998 16.1342 21.9592 20.8667 22.6144C21.2094 22.6641 21.5226 22.8361 21.7484 23.0987C21.9742 23.3613 22.0973 23.6967 22.095 24.043C22.095 24.3745 21.9811 24.6962 21.7754 24.9475C21.4167 25.3857 21.0493 25.8167 20.6734 26.2401H22.4969C22.6115 26.1034 22.7268 25.9639 22.8435 25.8224C23.2531 25.3201 23.4765 24.6918 23.476 24.0437C23.476 22.6455 22.4555 21.4406 21.0559 21.2473C16.2115 20.5768 12.8254 20.5126 7.9541 21.2245C6.54 21.431 5.52362 22.6545 5.52362 24.0624C5.52362 24.6872 5.72731 25.3052 6.11329 25.8058C6.22722 25.9536 6.33976 26.0986 6.45162 26.2408H8.23098C7.8812 25.822 7.54003 25.3962 7.20769 24.9634C7.01019 24.7044 6.90365 24.3874 6.90457 24.0617C6.90457 23.318 7.439 22.6945 8.15364 22.5903ZM14.4998 15.883C15.0439 15.883 15.5826 15.7758 16.0852 15.5676C16.5878 15.3594 17.0446 15.0543 17.4293 14.6696C17.814 14.2849 18.1191 13.8282 18.3273 13.3255C18.5355 12.8229 18.6427 12.2842 18.6427 11.7401C18.6427 11.1961 18.5355 10.6573 18.3273 10.1547C18.1191 9.65208 17.814 9.19538 17.4293 8.81068C17.0446 8.42598 16.5878 8.12082 16.0852 7.91262C15.5826 7.70442 15.0439 7.59726 14.4998 7.59726C13.4011 7.59726 12.3473 8.03374 11.5704 8.81068C10.7934 9.58761 10.357 10.6414 10.357 11.7401C10.357 12.8389 10.7934 13.8926 11.5704 14.6696C12.3473 15.4465 13.4011 15.883 14.4998 15.883ZM14.4998 17.2639C15.9648 17.2639 17.3698 16.682 18.4057 15.646C19.4416 14.6101 20.0236 13.2051 20.0236 11.7401C20.0236 10.2751 19.4416 8.87011 18.4057 7.83419C17.3698 6.79828 15.9648 6.21631 14.4998 6.21631C13.0348 6.21631 11.6298 6.79828 10.5939 7.83419C9.55797 8.87011 8.976 10.2751 8.976 11.7401C8.976 13.2051 9.55797 14.6101 10.5939 15.646C11.6298 16.682 13.0348 17.2639 14.4998 17.2639Z" fill="white"/>
<circle cx="14.5" cy="14.5" r="14" stroke="white"/>
</svg>
